# Blender 4.5.1 LTS
# www.blender.org
mtllib Model1.mtl
o Cube
v -0.999999 -2.058562 0.999999
v -0.999999 -0.058562 0.999999
v -0.999999 -2.058562 -1.000001
v -0.999999 -0.058562 -1.000001
v 1.000001 -0.058562 0.999999
v 1.000001 -2.058562 -1.000001
v 1.000001 -0.058562 -1.000001
v -0.999999 0.741438 0.999999
v -0.999999 0.741438 -1.000001
v 1.000001 0.741438 -1.000001
v 1.000001 0.741438 0.999999
v -0.423636 1.941438 0.423636
v -0.723224 1.841439 0.723224
v -0.650019 1.914644 0.650019
v -0.423636 1.941438 -0.423638
v -0.650019 1.914644 -0.650021
v -0.723224 1.841439 -0.723226
v 0.423638 1.941438 -0.423638
v 0.650021 1.914644 -0.650021
v 0.723226 1.841439 -0.723226
v 0.423638 1.941438 0.423636
v 0.650021 1.914644 0.650019
v 0.723226 1.841439 0.723224
v -0.999999 -0.058562 -1.450778
v -0.756324 0.185935 -1.679977
v -0.967353 -0.025805 -1.572707
v -0.878162 0.063686 -1.656599
v 1.251301 0.185935 -1.515000
v 1.494976 0.185935 -1.250479
v 1.264357 -0.058562 -1.264357
v 1.370778 0.185935 -1.468987
v 1.258859 0.066008 -1.477401
v 1.370621 0.069760 -1.441417
v 1.460611 0.065698 -1.255065
v 1.458903 0.185935 -1.373324
v 1.433653 0.069497 -1.371942
v 1.263572 -0.022242 -1.386980
v 1.377318 -0.022449 -1.260072
v 1.372675 0.004810 -1.376312
v 1.494976 0.185935 1.250478
v 1.251301 0.185935 1.514998
v 1.264357 -0.058562 1.264356
v 1.458903 0.185935 1.373322
v 1.460611 0.065698 1.255063
v 1.433653 0.069497 1.371940
v 1.258859 0.066008 1.477400
v 1.370778 0.185935 1.468985
v 1.370621 0.069760 1.441415
v 1.377318 -0.022448 1.260071
v 1.263572 -0.022242 1.386978
v 1.372675 0.004810 1.376310
v -0.756324 0.185935 1.679975
v -0.999999 -0.058562 1.450776
v -0.878162 0.063686 1.656598
v -0.967353 -0.025805 1.572705
v -0.756324 0.496942 -1.679977
v -0.999999 0.741438 -1.450778
v -0.878162 0.619190 -1.656599
v -0.967353 0.708682 -1.572707
v 1.264357 0.741438 -1.264357
v 1.494976 0.496942 -1.250479
v 1.251301 0.496942 -1.515000
v 1.377318 0.705325 -1.260072
v 1.263572 0.705119 -1.386980
v 1.372675 0.678066 -1.376312
v 1.458903 0.496942 -1.373324
v 1.460611 0.617179 -1.255065
v 1.433653 0.613380 -1.371942
v 1.258859 0.616869 -1.477401
v 1.370778 0.496942 -1.468987
v 1.370621 0.613117 -1.441417
v 1.264357 0.741438 1.264356
v 1.251301 0.496942 1.514998
v 1.494976 0.496942 1.250478
v 1.263572 0.705119 1.386978
v 1.377318 0.705325 1.260070
v 1.372675 0.678066 1.376310
v 1.370778 0.496942 1.468985
v 1.258859 0.616868 1.477400
v 1.370621 0.613117 1.441415
v 1.460611 0.617179 1.255063
v 1.458903 0.496942 1.373322
v 1.433653 0.613380 1.371940
v -0.999999 0.741438 1.450776
v -0.756324 0.496942 1.679975
v -0.967353 0.708682 1.572705
v -0.878162 0.619190 1.656598
v 1.000001 -2.058562 0.757020
v 0.976351 -2.034912 0.845283
v 0.993074 -2.051635 0.799839
v 1.000001 -1.815582 0.999999
v 0.976351 -1.903845 0.976349
v 0.993074 -1.858401 0.993072
v 0.845285 -2.034912 0.976349
v 0.757022 -2.058562 0.999999
v 0.799841 -2.051635 0.993072
v -0.014306 0.741438 0.750019
v -0.750019 0.741438 0.014306
v -0.999964 0.741438 0.999964
v -0.295851 0.741438 0.694016
v -0.534534 0.741438 0.534534
v -0.694016 0.741438 0.295851
v -0.750019 0.741438 -0.014308
v -0.014306 0.741438 -0.750021
v -0.999964 0.741438 -0.999965
v -0.694016 0.741438 -0.295853
v -0.534534 0.741438 -0.534535
v -0.295851 0.741438 -0.694018
v 0.014308 0.741438 -0.750021
v 0.750021 0.741438 -0.014308
v 0.999965 0.741438 -0.999965
v 0.295853 0.741438 -0.694018
v 0.534535 0.741438 -0.534535
v 0.694018 0.741438 -0.295853
v 0.750021 0.741438 0.014306
v 0.014308 0.741438 0.750019
v 0.999965 0.741438 0.999964
v 0.694018 0.741438 0.295851
v 0.534535 0.741438 0.534534
v 0.295853 0.741438 0.694016
v -0.750019 1.741438 0.014306
v -0.014306 1.741438 0.750019
v -0.723236 1.841392 0.723236
v -0.694016 1.741438 0.295851
v -0.534534 1.741438 0.534534
v -0.295851 1.741438 0.694016
v -0.014306 1.741438 -0.750021
v -0.750019 1.741438 -0.014308
v -0.723236 1.841392 -0.723238
v -0.295851 1.741438 -0.694018
v -0.534534 1.741438 -0.534535
v -0.694016 1.741438 -0.295853
v 0.750021 1.741438 -0.014308
v 0.014308 1.741438 -0.750021
v 0.723238 1.841392 -0.723238
v 0.694018 1.741438 -0.295853
v 0.534535 1.741438 -0.534535
v 0.295853 1.741438 -0.694018
v 0.014308 1.741438 0.750019
v 0.750021 1.741438 0.014306
v 0.723238 1.841392 0.723236
v 0.295853 1.741438 0.694016
v 0.534535 1.741438 0.534534
v 0.694018 1.741438 0.295851
v -0.550019 1.941438 0.550019
v -0.550019 1.941438 -0.550021
v 0.550021 1.941438 -0.550021
v 0.550021 1.941438 0.550019
v -0.423636 2.305891 0.423636
v -0.288089 2.441438 0.288089
v -0.405476 2.373665 0.405476
v -0.355863 2.423278 0.355863
v -0.288089 2.441438 -0.288091
v -0.423636 2.305891 -0.423638
v -0.355863 2.423278 -0.355864
v -0.405476 2.373665 -0.405478
v 0.288091 2.441438 -0.288091
v 0.423638 2.305891 -0.423638
v 0.355864 2.423278 -0.355864
v 0.405478 2.373665 -0.405478
v 0.288091 2.441438 0.288089
v 0.423638 2.305891 0.423636
v 0.355864 2.423278 0.355863
v 0.405478 2.373665 0.405476
v 1.000001 -0.497817 0.999999
v 1.000001 -0.937072 0.999999
v 1.000001 -1.376327 0.999999
v -0.999999 -2.724478 -1.000001
v -0.999999 -2.724478 0.999999
v 1.000001 -2.724478 -1.000001
v 0.757022 -2.724478 0.999999
v 1.000001 -2.724478 0.757020
v 0.757022 -2.058562 0.999999
v 1.000001 -2.058562 0.757020
v 1.000001 -2.058562 -1.000001
v -0.999999 -2.058562 0.999999
v 0.757022 -2.724478 0.999999
v 1.000001 -2.724478 0.757020
v 1.000001 -2.724478 -1.000001
v -0.999999 -2.724478 0.999999
v 1.000001 -2.502506 -1.000001
v 1.000001 -2.280534 -1.000001
v -0.999999 -2.502506 -1.000001
v -0.999999 -2.280534 -1.000001
v -0.999999 -2.502506 0.999999
v -0.999999 -2.280534 0.999999
v 0.757022 -2.280534 0.999999
v 0.757022 -2.502506 0.999999
v 1.000001 -2.502506 0.757020
v 1.000001 -2.280534 0.757020
v 1.000001 -2.502506 -1.000001
v 1.000001 -2.280534 -1.000001
v -0.999999 -2.502506 0.999999
v -0.999999 -2.280534 0.999999
v 1.000001 -2.502506 -1.337350
v 1.000001 -2.280534 -1.337350
v -1.238541 -2.502506 -1.238543
v -1.238541 -2.280534 -1.238543
v -1.337349 -2.502506 0.999999
v -1.337349 -2.280534 0.999999
v 0.886120 -2.280534 1.311670
v 0.886120 -2.502506 1.311670
v 1.311671 -2.502506 0.886118
v 1.311671 -2.280534 0.886118
v 1.337350 -2.502506 -1.000001
v 1.337350 -2.280534 -1.000001
v -0.999999 -2.502506 1.337349
v -0.999999 -2.280534 1.337349
v 1.000001 -0.796752 0.526014
v 1.000001 -0.620596 0.348313
v 1.000001 -0.602303 -0.454770
v 1.000001 -0.771202 -0.648677
v 1.000001 -0.858628 -0.530045
v 1.000001 -0.775555 -0.408427
v 1.000001 -0.776258 -0.121634
v 1.000001 -1.465857 -0.121659
v 1.000001 -1.469899 0.008891
v 1.000001 -0.800889 0.013560
v 1.000001 -0.798118 0.355278
v 1.000001 -0.878362 0.446194
v 1.100001 -0.796752 0.526014
v 1.100001 -0.620596 0.348313
v 1.100001 -0.602303 -0.454770
v 1.100001 -0.771202 -0.648677
v 1.100001 -0.858628 -0.530045
v 1.100001 -0.775555 -0.408427
v 1.100001 -0.776258 -0.121634
v 1.100001 -1.465857 -0.121659
v 1.100001 -1.469899 0.008891
v 1.100001 -0.800889 0.013560
v 1.100001 -0.798118 0.355278
v 1.100001 -0.878362 0.446194
vn -1.0000 -0.0000 -0.0000
vn -0.0000 -0.0000 -1.0000
vn -0.2588 0.9659 -0.0000
vn -0.7071 0.7071 -0.0000
vn -0.0000 0.9659 -0.2588
vn -0.0000 0.7071 -0.7071
vn 0.2588 0.9659 -0.0000
vn 0.7071 0.7071 -0.0000
vn -0.0000 0.9659 0.2588
vn -0.0000 0.7071 0.7071
vn 0.3278 -0.2418 -0.9133
vn 0.7277 -0.1624 -0.6664
vn 0.9395 -0.2333 -0.2507
vn 0.7201 -0.6683 -0.1867
vn 0.2804 -0.9260 -0.2528
vn 0.2407 -0.6862 -0.6864
vn 0.6195 -0.5459 -0.5641
vn 0.9395 -0.2333 0.2507
vn 0.7277 -0.1624 0.6664
vn 0.3278 -0.2418 0.9133
vn 0.2407 -0.6862 0.6864
vn 0.2804 -0.9260 0.2528
vn 0.7201 -0.6683 0.1867
vn 0.6195 -0.5459 0.5641
vn 0.2804 0.9260 -0.2528
vn 0.7201 0.6683 -0.1867
vn 0.9395 0.2333 -0.2507
vn 0.7277 0.1624 -0.6664
vn 0.3278 0.2418 -0.9133
vn 0.2407 0.6862 -0.6864
vn 0.6195 0.5459 -0.5641
vn 0.2804 0.9260 0.2528
vn 0.2407 0.6862 0.6864
vn 0.3278 0.2418 0.9133
vn 0.7277 0.1624 0.6664
vn 0.9395 0.2333 0.2507
vn 0.7201 0.6683 0.1867
vn 0.6195 0.5459 0.5641
vn 0.0796 -0.2786 -0.9571
vn 0.0593 -0.7132 -0.6985
vn 0.0230 -0.9629 -0.2690
vn 0.9615 -0.2748 -0.0000
vn 0.7268 -0.6868 -0.0000
vn 0.3045 -0.9525 -0.0000
vn 0.0796 -0.2786 0.9571
vn 0.0593 -0.7132 0.6985
vn 0.0230 -0.9629 0.2690
vn 0.0230 0.9629 -0.2690
vn 0.0593 0.7132 -0.6985
vn 0.0796 0.2786 -0.9571
vn 0.3045 0.9525 -0.0000
vn 0.7268 0.6868 -0.0000
vn 0.9615 0.2748 -0.0000
vn 0.0230 0.9629 0.2690
vn 0.0593 0.7132 0.6985
vn 0.0796 0.2786 0.9571
vn -0.1884 -0.0000 0.9821
vn -0.6851 -0.0000 0.7284
vn -0.9660 -0.0000 0.2586
vn -0.1884 -0.0000 -0.9821
vn -0.6851 -0.0000 -0.7284
vn -0.9660 -0.0000 -0.2586
vn 0.9595 -0.0000 0.2818
vn 0.7355 -0.0000 0.6775
vn 0.3594 -0.0000 0.9332
vn 0.9595 -0.0000 -0.2818
vn 0.7355 -0.0000 -0.6775
vn 0.3594 -0.0000 -0.9332
vn -0.0000 -1.0000 -0.0000
vn 0.0819 -0.0000 -0.9966
vn 1.0000 -0.0000 -0.0000
vn 0.0819 -0.0000 0.9966
vn -0.0000 1.0000 -0.0000
vn 0.1862 -0.9647 0.1862
vn 0.4495 -0.7720 0.4495
vn 0.9647 -0.1862 0.1862
vn 0.7720 -0.4495 0.4495
vn 0.1862 -0.1862 0.9647
vn 0.4495 -0.4495 0.7720
vn 0.5774 -0.5774 0.5774
vn -0.0000 -0.0000 1.0000
vn -0.6529 -0.7462 0.1299
vn -0.2966 -0.9342 0.1982
vn -0.1982 -0.9342 0.2966
vn -0.1299 -0.7462 0.6529
vn -0.1299 -0.7462 -0.6529
vn -0.1982 -0.9342 -0.2966
vn -0.2966 -0.9342 -0.1982
vn -0.6529 -0.7462 -0.1299
vn 0.6529 -0.7462 -0.1299
vn 0.2966 -0.9342 -0.1982
vn 0.1982 -0.9342 -0.2966
vn 0.1299 -0.7462 -0.6529
vn 0.1299 -0.7462 0.6529
vn 0.1982 -0.9342 0.2966
vn 0.2966 -0.9342 0.1982
vn 0.6529 -0.7462 0.1299
vn -0.1951 -0.0000 -0.9808
vn -0.5556 -0.0000 -0.8315
vn -0.8315 -0.0000 -0.5556
vn -0.9808 -0.0000 -0.1951
vn -0.1951 -0.0000 0.9808
vn -0.5556 -0.0000 0.8315
vn -0.8315 -0.0000 0.5556
vn -0.9808 -0.0000 0.1951
vn 0.9808 -0.0000 0.1951
vn 0.8315 -0.0000 0.5556
vn 0.5556 -0.0000 0.8315
vn 0.1951 -0.0000 0.9808
vn 0.9808 -0.0000 -0.1951
vn 0.8315 -0.0000 -0.5556
vn 0.5556 -0.0000 -0.8315
vn 0.1951 -0.0000 -0.9808
vn -0.0000 0.2588 0.9659
vn -0.9659 0.2588 -0.0000
vn -0.0000 0.2588 -0.9659
vn 0.9659 0.2588 -0.0000
vn 0.7071 -0.0000 0.7071
vn 0.0136 -0.0000 0.9999
vn 0.9999 -0.0000 0.0136
vn -0.9990 -0.0000 -0.0441
vn -0.0441 -0.0000 -0.9990
vn -0.0000 -1.0000 -0.0024
vn -0.0000 0.7541 -0.6568
vn -0.0000 -1.0000 0.0081
vn -0.0000 -0.8050 -0.5933
vn -0.0000 -0.7497 -0.6617
vn -0.0000 0.7102 0.7040
vn -0.0000 -0.9995 -0.0310
vn -0.0000 -0.8257 0.5640
vn -0.0000 -0.6992 0.7149
vn -0.0000 0.9997 0.0228
vn -0.0000 -0.0070 1.0000
vt 0.375000 0.000000
vt 0.625000 0.000000
vt 0.625000 0.250000
vt 0.375000 0.250000
vt 0.625000 0.500000
vt 0.375000 0.500000
vt 0.818753 0.693753
vt 0.818752 0.556247
vt 0.831253 0.543748
vt 0.831252 0.706253
vt 0.842078 0.532922
vt 0.842078 0.717078
vt 0.681248 0.556248
vt 0.668748 0.543748
vt 0.657922 0.532922
vt 0.681248 0.693753
vt 0.668748 0.706253
vt 0.657922 0.717078
vt 0.625000 0.475583
vt 0.625000 0.487851
vt 0.625000 0.488061
vt 0.625000 0.476643
vt 0.625000 0.510172
vt 0.625000 0.510287
vt 0.625000 0.520443
vt 0.625000 0.520060
vt 0.625000 0.510325
vt 0.625000 0.499647
vt 0.625000 0.500000
vt 0.625000 0.488143
vt 0.625000 0.729557
vt 0.625000 0.739828
vt 0.625000 0.739713
vt 0.625000 0.729940
vt 0.625000 0.762149
vt 0.625000 0.761939
vt 0.625000 0.774417
vt 0.625000 0.773357
vt 0.625000 0.761823
vt 0.625000 0.750323
vt 0.625000 0.750000
vt 0.625000 0.739726
vt 0.625000 0.510273
vt 0.625000 0.488789
vt 0.635777 0.488635
vt 0.625000 0.520060
vt 0.625000 0.509030
vt 0.625000 0.520443
vt 0.625000 0.510172
vt 0.625000 0.487851
vt 0.625000 0.488061
vt 0.625000 0.476643
vt 0.625000 0.750000
vt 0.636311 0.760837
vt 0.632007 0.754195
vt 0.624512 0.740162
vt 0.625000 0.773357
vt 0.625000 0.761939
vt 0.625000 0.774417
vt 0.625000 0.762149
vt 0.625000 0.739828
vt 0.625000 0.740970
vt 0.625000 0.729557
vt 0.625000 0.729940
vt 0.625000 0.274417
vt 0.625000 0.262481
vt 0.625000 0.252730
vt 0.625000 0.250000
vt 0.625000 0.975583
vt 0.625000 0.987519
vt 0.625000 0.996860
vt 0.625000 1.000000
vt 0.875000 0.500000
vt 0.870710 0.500000
vt 0.625000 0.252627
vt 0.625000 0.262481
vt 0.875000 0.750000
vt 0.870710 0.750000
vt 0.625000 0.996660
vt 0.625000 0.987519
vt 0.625000 0.975583
vt 0.625000 0.000000
vt 0.625000 0.250000
vt 0.625000 1.000000
vt 0.875000 0.500000
vt 0.875000 0.750000
vt 0.359868 0.765241
vt 0.375000 0.719628
vt 0.375138 0.725435
vt 0.362977 0.762132
vt 0.376485 0.732145
vt 0.368329 0.756756
vt 0.405372 0.750000
vt 0.399566 0.749863
vt 0.392868 0.748528
vt 0.535920 0.543916
vt 0.524992 0.558744
vt 0.535376 0.573947
vt 0.535288 0.609796
vt 0.449088 0.609793
vt 0.448583 0.626111
vt 0.532209 0.626695
vt 0.532555 0.669410
vt 0.522525 0.680775
vt 0.532726 0.690752
vt 0.515186 0.750000
vt 0.460279 0.750000
vt 0.570093 0.750000
vt 0.375000 1.000000
vt 0.751788 0.718753
vt 0.786981 0.718753
vt 0.874996 0.749996
vt 0.816817 0.718752
vt 0.836752 0.718752
vt 0.843752 0.718752
vt 0.843752 0.623212
vt 0.843752 0.588018
vt 0.874996 0.500004
vt 0.843752 0.558183
vt 0.874996 0.500004
vt 0.843752 0.538248
vt 0.843752 0.531247
vt 0.748212 0.531247
vt 0.713019 0.531248
vt 0.625004 0.500004
vt 0.683183 0.531248
vt 0.625004 0.500004
vt 0.663248 0.531248
vt 0.656248 0.531248
vt 0.656248 0.626788
vt 0.656248 0.661982
vt 0.625004 0.749996
vt 0.656248 0.691817
vt 0.656248 0.711752
vt 0.656248 0.718753
vt 0.843753 0.626788
vt 0.843752 0.661981
vt 0.842078 0.717078
vt 0.843752 0.691817
vt 0.842078 0.717079
vt 0.843752 0.711752
vt 0.843752 0.718752
vt 0.751788 0.531247
vt 0.786982 0.531247
vt 0.842079 0.532921
vt 0.816817 0.531247
vt 0.842079 0.532921
vt 0.836752 0.531247
vt 0.843752 0.531247
vt 0.656248 0.623212
vt 0.656248 0.588018
vt 0.657921 0.532921
vt 0.656248 0.558183
vt 0.656248 0.538248
vt 0.656248 0.531248
vt 0.748212 0.718752
vt 0.713018 0.718752
vt 0.657921 0.717079
vt 0.683183 0.718752
vt 0.657921 0.717079
vt 0.663248 0.718752
vt 0.656247 0.718752
vt 0.786981 0.531247
vt 0.843753 0.588019
vt 0.843752 0.588018
vt 0.843753 0.623212
vt 0.751788 0.718752
vt 0.786981 0.718752
vt 0.843753 0.661981
vt 0.843753 0.626788
vt 0.656247 0.626788
vt 0.656247 0.661981
vt 0.713018 0.718753
vt 0.748212 0.718752
vt 0.656248 0.623212
vt 0.656248 0.588019
vt 0.713019 0.531247
vt 0.802955 0.677955
vt 0.802955 0.572045
vt 0.697045 0.572045
vt 0.697045 0.677955
vt 0.786011 0.661011
vt 0.786011 0.588989
vt 0.794483 0.580517
vt 0.794483 0.669483
vt 0.801820 0.573180
vt 0.801820 0.676820
vt 0.802955 0.677955
vt 0.713989 0.588989
vt 0.705517 0.580517
vt 0.698180 0.573180
vt 0.697045 0.572045
vt 0.713989 0.661011
vt 0.705517 0.669483
vt 0.698180 0.676820
vt 0.697045 0.677955
vt 0.125000 0.500000
vt 0.125000 0.750000
vt 0.375000 0.719628
vt 0.359868 0.765241
vt 0.359868 0.765241
vt 0.375000 0.719628
vt 0.554746 0.668539
vt 0.557032 0.568154
s 0
f 1/1/1 2/2/1 4/3/1 3/4/1
f 3/4/2 4/3/2 7/5/2 6/6/2
f 4/3/1 2/2/1 8/2/1 9/3/1
f 145/7/3 146/8/3 16/9/3 14/10/3
f 14/10/4 16/9/4 17/11/4 13/12/4
f 146/8/5 147/13/5 19/14/5 16/9/5
f 16/9/6 19/14/6 20/15/6 17/11/6
f 147/13/7 148/16/7 22/17/7 19/14/7
f 19/14/8 22/17/8 23/18/8 20/15/8
f 148/16/9 145/7/9 14/10/9 22/17/9
f 22/17/10 14/10/10 13/12/10 23/18/10
f 28/19/11 31/20/11 33/21/11 32/22/11
f 31/20/12 35/23/12 36/24/12 33/21/12
f 29/25/13 34/26/13 36/24/13 35/23/13
f 34/26/14 38/27/14 39/28/14 36/24/14
f 30/29/15 37/30/15 39/28/15 38/27/15
f 37/30/16 32/22/16 33/21/16 39/28/16
f 33/21/17 36/24/17 39/28/17
f 40/31/18 43/32/18 45/33/18 44/34/18
f 43/32/19 47/35/19 48/36/19 45/33/19
f 41/37/20 46/38/20 48/36/20 47/35/20
f 46/38/21 50/39/21 51/40/21 48/36/21
f 42/41/22 49/42/22 51/40/22 50/39/22
f 49/42/23 44/34/23 45/33/23 51/40/23
f 45/33/24 48/36/24 51/40/24
f 60/5/25 63/43/25 65/44/25 64/45/25
f 63/43/26 67/46/26 68/47/26 65/44/26
f 61/48/27 66/49/27 68/47/27 67/46/27
f 66/49/28 70/50/28 71/51/28 68/47/28
f 62/19/29 69/52/29 71/51/29 70/50/29
f 69/52/30 64/45/30 65/44/30 71/51/30
f 65/44/31 68/47/31 71/51/31
f 72/53/32 75/54/32 77/55/32 76/56/32
f 75/54/33 79/57/33 80/58/33 77/55/33
f 73/59/34 78/60/34 80/58/34 79/57/34
f 78/60/35 82/61/35 83/62/35 80/58/35
f 74/63/36 81/64/36 83/62/36 82/61/36
f 81/64/37 76/56/37 77/55/37 83/62/37
f 77/55/38 80/58/38 83/62/38
f 25/65/39 28/19/39 32/22/39 27/66/39
f 27/66/40 32/22/40 37/30/40 26/67/40
f 26/67/41 37/30/41 30/29/41 24/68/41
f 29/25/42 40/31/42 44/34/42 34/26/42
f 34/26/43 44/34/43 49/42/43 38/27/43
f 38/27/44 49/42/44 42/41/44 30/29/44
f 41/37/45 52/69/45 54/70/45 46/38/45
f 46/38/46 54/70/46 55/71/46 50/39/46
f 50/39/47 55/71/47 53/72/47 42/41/47
f 57/73/48 60/5/48 64/45/48 59/74/48
f 59/75/49 64/45/49 69/52/49 58/76/49
f 58/76/50 69/52/50 62/19/50 56/65/50
f 60/5/51 72/53/51 76/56/51 63/43/51
f 63/43/52 76/56/52 81/64/52 67/46/52
f 67/46/53 81/64/53 74/63/53 61/48/53
f 72/53/54 84/77/54 86/78/54 75/54/54
f 75/54/55 86/79/55 87/80/55 79/57/55
f 79/57/56 87/80/56 85/81/56 73/59/56
f 52/69/57 85/81/57 87/80/57 54/70/57
f 54/70/58 87/80/58 86/79/58 55/71/58
f 55/2/59 86/2/59 84/82/59 53/82/59
f 56/65/60 25/65/60 27/66/60 58/76/60
f 58/76/61 27/66/61 26/67/61 59/75/61
f 59/75/62 26/67/62 24/68/62 57/83/62
f 40/31/63 74/63/63 82/61/63 43/32/63
f 43/32/64 82/61/64 78/60/64 47/35/64
f 47/35/65 78/60/65 73/59/65 41/37/65
f 61/48/66 29/25/66 35/23/66 66/49/66
f 66/49/67 35/23/67 31/20/67 70/50/67
f 70/50/68 31/20/68 28/19/68 62/19/68
f 7/5/69 4/3/69 24/68/69 30/29/69
f 28/19/70 25/65/70 56/65/70 62/19/70
f 4/3/1 9/3/1 57/83/1 24/68/1
f 5/53/69 7/5/69 30/29/69 42/41/69
f 40/31/71 29/25/71 61/48/71 74/63/71
f 2/84/69 5/53/69 42/41/69 53/72/69
f 52/69/72 41/37/72 73/59/72 85/81/72
f 8/2/1 2/2/1 53/82/1 84/82/1
f 9/85/73 10/5/73 60/5/73 57/73/73
f 10/5/73 11/53/73 72/53/73 60/5/73
f 11/53/73 8/86/73 84/77/73 72/53/73
f 95/87/74 88/88/74 90/89/74 96/90/74
f 96/90/75 90/89/75 89/91/75 94/92/75
f 88/88/76 91/93/76 93/94/76 90/89/76
f 90/89/77 93/94/77 92/95/77 89/91/77
f 91/93/78 95/87/78 96/90/78 93/94/78
f 93/94/79 96/90/79 94/92/79 92/95/79
f 171/87/73 172/88/73 178/88/73 177/87/73
f 89/91/80 92/95/80 94/92/80
f 6/6/71 7/5/71 212/96/71 213/97/71 214/98/71 215/99/71 216/100/71 217/101/71 218/102/71 219/103/71 220/104/71 209/105/71 166/106/71 167/107/71 91/93/71 88/88/71
f 95/87/81 91/93/81 167/107/81 166/106/81 165/108/81 5/53/81 2/84/81 1/109/81
f 97/110/73 100/111/73 99/112/73
f 100/111/73 101/113/73 99/112/73
f 101/113/73 102/114/73 99/112/73
f 102/114/73 98/115/73 99/112/73
f 103/116/73 106/117/73 105/118/73
f 106/117/73 107/119/73 105/120/73
f 107/119/73 108/121/73 105/120/73
f 108/121/73 104/122/73 105/120/73
f 109/123/73 112/124/73 111/125/73
f 112/124/73 113/126/73 111/127/73
f 113/126/73 114/128/73 111/127/73
f 114/128/73 110/129/73 111/127/73
f 115/130/73 118/131/73 117/132/73
f 118/131/73 119/133/73 117/132/73
f 119/133/73 120/134/73 117/132/73
f 120/134/73 116/135/73 117/132/73
f 121/136/82 124/137/82 123/138/82
f 124/137/83 125/139/83 123/140/83
f 125/139/84 126/141/84 123/140/84
f 126/141/85 122/142/85 123/140/85
f 127/143/86 130/144/86 129/145/86
f 130/144/87 131/146/87 129/147/87
f 131/146/88 132/148/88 129/147/88
f 132/148/89 128/149/89 129/147/89
f 133/150/90 136/151/90 135/152/90
f 136/151/91 137/153/91 135/152/91
f 137/153/92 138/154/92 135/152/92
f 138/154/93 134/155/93 135/152/93
f 139/156/94 142/157/94 141/158/94
f 142/157/95 143/159/95 141/160/95
f 143/159/96 144/161/96 141/160/96
f 144/161/97 140/162/97 141/160/97
f 127/143/98 104/143/98 108/163/98 130/163/98
f 130/163/99 108/163/99 107/122/99 131/149/99
f 131/149/100 107/122/100 106/164/100 132/165/100
f 132/165/101 106/164/101 103/116/101 128/166/101
f 97/110/102 122/167/102 126/168/102 100/111/102
f 100/111/103 126/168/103 125/142/103 101/115/103
f 101/115/104 125/142/104 124/169/104 102/137/104
f 102/137/105 124/169/105 121/136/105 98/170/105
f 115/130/106 140/171/106 144/172/106 118/131/106
f 118/131/107 144/172/107 143/135/107 119/135/107
f 119/135/108 143/135/108 142/157/108 120/173/108
f 120/173/109 142/157/109 139/156/109 116/174/109
f 133/150/110 110/175/110 114/176/110 136/176/110
f 136/176/111 114/176/111 113/129/111 137/129/111
f 137/129/112 113/129/112 112/124/112 138/177/112
f 138/177/113 112/124/113 109/123/113 134/123/113
f 103/116/1 98/170/1 121/136/1 128/166/1
f 99/112/73 98/170/73 103/116/73 105/118/73 9/85/73 8/86/73
f 97/110/81 116/174/81 139/156/81 122/167/81
f 117/132/73 116/174/73 97/110/73 99/112/73 8/86/73 11/53/73
f 105/118/73 104/143/73 109/123/73 111/125/73 10/5/73 9/85/73
f 109/123/2 104/143/2 127/143/2 134/123/2
f 111/125/73 110/175/73 115/130/73 117/132/73 11/53/73 10/5/73
f 115/130/71 110/175/71 133/150/71 140/171/71
f 23/18/114 13/12/114 123/138/114 122/167/114 139/156/114 141/158/114
f 13/12/115 17/11/115 129/145/115 128/166/115 121/136/115 123/138/115
f 17/11/116 20/15/116 135/152/116 134/123/116 127/143/116 129/145/116
f 20/15/117 23/18/117 141/158/117 140/171/117 133/150/117 135/152/117
f 12/178/73 15/179/73 146/8/73 145/7/73
f 15/179/73 18/180/73 147/13/73 146/8/73
f 18/180/73 21/181/73 148/16/73 147/13/73
f 21/181/73 12/178/73 145/7/73 148/16/73
f 150/182/3 153/183/3 155/184/3 152/185/3
f 152/185/4 155/184/4 156/186/4 151/187/4
f 151/187/115 156/186/115 154/179/115 149/188/115
f 153/183/5 157/189/5 159/190/5 155/184/5
f 155/184/6 159/190/6 160/191/6 156/186/6
f 156/186/116 160/191/116 158/192/116 154/179/116
f 157/189/7 161/193/7 163/194/7 159/190/7
f 159/190/8 163/194/8 164/195/8 160/191/8
f 160/191/117 164/195/117 162/196/117 158/192/117
f 161/193/9 150/182/9 152/185/9 163/194/9
f 163/194/10 152/185/10 151/187/10 164/195/10
f 164/195/114 151/187/114 149/188/114 162/196/114
f 15/179/1 12/178/1 149/188/1 154/179/1
f 157/189/73 153/183/73 150/182/73 161/193/73
f 12/178/81 21/181/81 162/196/81 149/188/81
f 18/180/2 15/179/2 154/179/2 158/192/2
f 21/181/71 18/180/71 158/192/71 162/196/71
f 168/197/69 170/6/69 172/88/69 171/87/69 169/198/69
f 169/198/73 171/87/73 177/87/73 180/198/73
f 183/4/2 181/6/2 170/6/2 168/4/2
f 185/1/1 183/4/1 168/4/1 169/1/1
f 88/88/73 95/87/73 173/87/73 174/88/73
f 189/199/118 188/200/118 177/87/118 178/88/118
f 191/6/71 189/199/71 178/88/71 179/6/71
f 188/200/81 193/109/81 180/109/81 177/87/81
f 6/6/73 88/88/73 174/88/73 175/6/73
f 185/1/73 169/1/73 180/1/73 193/1/73
f 182/6/73 6/6/73 175/6/73 192/6/73
f 172/88/73 170/6/73 179/6/73 178/88/73
f 95/87/73 1/109/73 176/109/73 173/87/73
f 170/6/73 181/6/73 191/6/73 179/6/73
f 181/6/73 182/6/73 192/6/73 191/6/73
f 1/1/73 186/1/73 194/1/73 176/1/73
f 186/1/73 185/1/73 193/1/73 194/1/73
f 173/87/81 176/109/81 194/109/81 187/201/81
f 193/109/69 188/200/69 202/200/69 207/109/69
f 175/6/71 174/88/71 190/202/71 192/6/71
f 184/4/73 182/6/73 196/6/73 198/4/73
f 174/88/118 173/87/118 187/201/118 190/202/118
f 191/6/2 192/6/2 206/6/2 205/6/2
f 1/1/1 3/4/1 184/4/1 186/1/1
f 187/201/73 194/109/73 208/109/73 201/201/73
f 3/4/2 6/6/2 182/6/2 184/4/2
f 183/4/69 185/1/69 199/1/69 197/4/69
f 201/201/119 208/109/119 207/109/119 202/200/119
f 206/6/120 204/202/120 203/199/120 205/6/120
f 204/202/118 201/201/118 202/200/118 203/199/118
f 200/1/121 198/4/121 197/4/121 199/1/121
f 198/4/122 196/6/122 195/6/122 197/4/122
f 181/6/69 183/4/69 197/4/69 195/6/69
f 185/1/81 186/1/81 200/1/81 199/1/81
f 192/6/73 190/202/73 204/202/73 206/6/73
f 194/1/1 193/1/1 207/1/1 208/1/1
f 189/199/69 191/6/69 205/6/69 203/199/69
f 190/202/73 187/201/73 201/201/73 204/202/73
f 188/200/69 189/199/69 203/199/69 202/200/69
f 182/6/71 181/6/71 195/6/71 196/6/71
f 186/1/73 184/4/73 198/4/73 200/1/73
f 166/106/71 209/105/71 210/203/71 211/204/71 212/96/71 7/5/71 5/53/71 165/108/71
f 215/99/123 214/98/123 226/98/123 227/99/123
f 223/204/71 222/203/71 221/105/71 232/104/71 231/103/71 230/102/71 229/101/71 228/100/71 227/99/71 226/98/71 225/97/71 224/96/71
f 212/96/124 211/204/124 223/204/124 224/96/124
f 219/103/125 218/102/125 230/102/125 231/103/125
f 216/100/2 215/99/2 227/99/2 228/100/2
f 213/97/126 212/96/126 224/96/126 225/97/126
f 220/104/127 219/103/127 231/103/127 232/104/127
f 210/203/128 209/105/128 221/105/128 222/203/128
f 217/101/129 216/100/129 228/100/129 229/101/129
f 214/98/130 213/97/130 225/97/130 226/98/130
f 209/105/131 220/104/131 232/104/131 221/105/131
f 211/204/132 210/203/132 222/203/132 223/204/132
f 218/102/133 217/101/133 229/101/133 230/102/133
